<svg xmlns="http://www.w3.org/2000/svg" viewBox="0 0 1600 1000"><defs><linearGradient id="a" y2="1"><stop stop-color="#090909"/><stop offset="1" stop-color="#360808"/></linearGradient><radialGradient id="l"><stop stop-color="#e4c057" stop-opacity=".55"/><stop offset="1" stop-color="#d4af37" stop-opacity="0"/></radialGradient></defs><rect width="1600" height="1000" fill="url(#a)"/><ellipse cx="800" cy="250" rx="700" ry="400" fill="url(#l)"/><rect x="230" y="130" width="1140" height="450" fill="#e5dfcf" stroke="#d4af37" stroke-width="8"/><rect x="270" y="170" width="1060" height="370" fill="#5c0a0a"/><path d="M0 1000 520 580h560l520 420" fill="#111"/><g fill="#4b0909"><path d="M90 1000v-140q0-80 80-80h160q80 0 80 80v140M460 1000v-140q0-80 80-80h160q80 0 80 80v140M830 1000v-140q0-80 80-80h160q80 0 80 80v140M1200 1000v-140q0-80 80-80h160q80 0 80 80v140"/></g><text x="800" y="940" fill="#d4af37" font-family="Arial" font-size="21" text-anchor="middle" letter-spacing="5">CINEMA HALL PHOTO PLACEHOLDER</text></svg>
