<svg xmlns="http://www.w3.org/2000/svg" viewBox="0 0 1920 1080"><defs><linearGradient id="b" x2="0" y2="1"><stop stop-color="#160606"/><stop offset=".55" stop-color="#090909"/><stop offset="1" stop-color="#2a0707"/></linearGradient><radialGradient id="g"><stop stop-color="#f5d775" stop-opacity=".6"/><stop offset="1" stop-color="#d4af37" stop-opacity="0"/></radialGradient></defs><rect width="1920" height="1080" fill="url(#b)"/><ellipse cx="1450" cy="250" rx="700" ry="300" fill="url(#g)" opacity=".4"/><path fill="#4b0808" d="M0 420 960 170l960 250v660H0z"/><path fill="#090909" d="M80 500h1760v580H80z"/><rect x="285" y="520" width="1350" height="390" rx="8" fill="#161616" stroke="#d4af37" stroke-opacity=".6" stroke-width="5"/><rect x="325" y="560" width="1270" height="310" fill="#5c0a0a"/><path fill="#240606" d="m325 870 380-310h890v310z"/><g fill="#290707" stroke="#7c1616" stroke-width="3"><path d="M200 1080v-90q0-70 70-70h110q70 0 70 70v90"/><path d="M490 1080v-90q0-70 70-70h110q70 0 70 70v90"/><path d="M780 1080v-90q0-70 70-70h110q70 0 70 70v90"/><path d="M1070 1080v-90q0-70 70-70h110q70 0 70 70v90"/><path d="M1360 1080v-90q0-70 70-70h110q70 0 70 70v90"/></g><text x="1720" y="1015" fill="#d4af37" font-family="Arial" font-size="24" text-anchor="end" letter-spacing="5">REPLACE WITH YOUR HERO PHOTO</text></svg>
